<?xml version="1.0" standalone="no"?>
<!DOCTYPE svg PUBLIC "-//W3C//DTD SVG 20010904//EN"
 "http://www.w3.org/TR/2001/REC-SVG-20010904/DTD/svg10.dtd">
<svg version="1.0" xmlns="http://www.w3.org/2000/svg"
 width="300.000000pt" height="109.000000pt" viewBox="0 0 300.000000 109.000000"
 preserveAspectRatio="xMidYMid meet">
<metadata>
Created by potrace 1.10, written by Peter Selinger 2001-2011
</metadata>
<g transform="translate(0.000000,109.000000) scale(0.100000,-0.100000)"
fill="#000000" stroke="none">
<path d="M154 1030 c15 -47 56 -135 65 -138 17 -6 13 34 -4 48 -12 10 -13 16
-3 28 11 13 11 14 -2 8 -8 -5 -6 1 5 12 20 21 40 26 85 22 l25 -2 -25 -8 c-21
-7 -18 -8 20 -10 l45 -3 -44 -7 c-47 -7 -81 -37 -81 -71 0 -10 0 -22 -1 -26 0
-4 4 -9 9 -11 6 -2 13 10 17 27 8 36 20 46 63 56 l32 7 0 -208 0 -208 -32 -33
-32 -33 115 -2 114 -2 -102 -5 c-139 -8 -122 -26 25 -26 61 0 112 1 112 3 0 2
-16 24 -35 49 l-35 46 0 203 c0 111 4 205 8 208 5 3 27 0 50 -6 31 -8 42 -16
42 -29 0 -11 6 -19 14 -19 8 0 17 -8 21 -17 5 -14 15 0 42 55 19 41 32 76 30
79 -11 10 -30 -11 -53 -61 -16 -32 -23 -41 -19 -23 3 16 17 46 30 68 14 21 25
40 25 41 0 2 -119 3 -266 3 -231 0 -264 -2 -260 -15z m274 -47 c-2 -10 -12
-18 -23 -18 -11 0 -21 8 -23 18 -3 13 3 17 23 17 20 0 26 -4 23 -17z m85 0
l-43 -4 -2 -227 -3 -227 -2 206 -3 206 -48 -3 c-35 -3 -42 -2 -27 5 11 5 32
10 48 10 20 1 27 6 27 21 0 17 6 20 48 18 l47 -1 -42 -4z m-78 -85 c2 -13 6
-105 7 -206 l3 -182 -25 0 -25 0 3 192 c1 106 5 199 7 206 7 20 24 14 30 -10z"/>
<path d="M72 1013 c-6 -12 -3 -46 8 -98 16 -74 115 -450 127 -480 4 -11 -11
-15 -64 -17 -65 -3 -68 -4 -68 -28 0 -22 5 -26 40 -30 32 -4 40 -9 40 -25 0
-16 8 -21 44 -25 l44 -5 27 -98 c27 -99 48 -135 69 -123 17 11 13 54 -14 141
-14 44 -25 82 -25 85 0 8 -84 7 1150 14 591 4 1148 9 1238 12 170 6 225 24 75
24 -49 0 -196 5 -328 11 -177 9 -240 9 -243 0 -6 -18 -52 -13 -52 6 0 15 21
16 253 9 138 -3 309 -9 380 -13 83 -4 127 -3 127 4 0 20 -198 25 -1175 29
-545 3 -1095 8 -1224 12 l-235 7 -18 70 c-69 267 -118 467 -118 487 0 43 -41
64 -58 31z m557 -641 c275 -3 346 -1 352 10 7 10 9 10 9 1 0 -9 22 -13 75 -13
53 0 75 4 76 13 0 9 2 9 6 0 4 -10 114 -14 496 -15 355 -2 238 -4 -419 -8
-726 -4 -914 -8 -927 -18 -12 -11 -25 -10 -74 7 -32 11 -52 20 -45 20 6 1 21
10 33 22 20 20 21 20 47 2 25 -16 58 -18 371 -21z"/>
<path d="M2355 863 c-81 -18 -142 -58 -170 -113 -18 -35 -35 -110 -25 -110 11
0 36 33 49 67 7 17 29 48 49 67 19 20 30 36 24 36 -7 0 -12 5 -12 12 0 7 17
-5 38 -25 27 -26 47 -37 68 -37 16 0 35 -5 41 -11 15 -15 43 -4 43 16 0 20
-26 30 -43 17 -20 -16 -65 -11 -83 9 -23 26 -12 33 49 33 53 -1 103 -20 126
-48 14 -17 61 -22 61 -7 0 12 -71 68 -101 79 -34 13 -91 20 -114 15z"/>
<path d="M2660 755 c-9 -10 -32 -15 -75 -15 -49 0 -66 -4 -80 -20 -14 -16 -31
-20 -80 -20 -53 0 -65 -4 -85 -25 -17 -18 -34 -25 -61 -25 -29 0 -40 -6 -54
-26 -13 -21 -19 -24 -26 -13 -6 10 3 26 29 52 33 34 41 37 73 32 43 -7 60 9
35 33 -12 13 -18 13 -28 4 -7 -7 -19 -12 -28 -12 -23 0 -120 -102 -120 -125 0
-11 5 -27 10 -35 8 -12 17 -7 52 28 32 31 52 42 74 42 18 0 38 8 49 20 15 16
31 20 85 20 58 0 70 3 90 25 19 21 33 25 77 25 38 0 55 -4 59 -15 15 -38 84
-18 84 25 0 37 -55 55 -80 25z m58 -22 c5 -17 -26 -29 -40 -15 -6 6 -7 15 -3
22 9 14 37 9 43 -7z"/>
<path d="M1540 675 c-13 -14 -20 -28 -17 -32 8 -7 57 35 57 49 0 15 -16 8 -40
-17z"/>
<path d="M1125 628 c-22 -28 -55 -73 -72 -99 -18 -27 -34 -49 -35 -49 -2 0 -1
27 0 60 3 39 0 60 -7 60 -7 0 -11 -29 -11 -80 0 -44 3 -80 8 -80 10 0 55 58
77 100 l19 35 8 -35 c19 -73 24 -85 40 -88 19 -4 58 35 58 57 0 11 -8 7 -26
-12 -14 -16 -28 -26 -31 -24 -2 3 -10 34 -18 69 l-13 63 30 38 c16 20 26 37
21 36 -4 0 -26 -23 -48 -51z"/>
<path d="M2556 665 c-10 -11 -37 -15 -94 -15 -71 0 -81 -2 -102 -25 -17 -18
-34 -25 -60 -25 -29 0 -44 -8 -74 -39 -21 -22 -35 -44 -32 -50 4 -6 22 6 43
29 20 23 45 40 56 40 18 0 13 -8 -28 -50 -27 -27 -47 -51 -44 -53 2 -1 12 -9
21 -16 15 -11 24 -7 66 28 48 40 102 55 117 31 9 -15 35 0 35 21 0 17 -6 19
-57 13 -50 -5 -63 -11 -90 -41 -18 -20 -37 -32 -43 -28 -8 5 3 22 31 51 43 44
44 44 113 44 56 0 74 -4 91 -20 16 -15 38 -21 82 -23 41 -1 65 -8 77 -20 22
-21 40 -22 60 -1 31 30 13 74 -30 74 -12 0 -27 -7 -34 -15 -20 -24 -122 -20
-145 5 -14 16 -31 20 -82 20 -60 0 -81 11 -47 24 26 10 164 7 164 -4 0 -5 9
-14 20 -20 30 -16 60 4 60 39 0 40 -44 56 -74 26z m52 -28 c2 -12 -3 -17 -17
-17 -12 0 -21 6 -21 13 0 31 32 34 38 4z m106 -82 c3 -9 -1 -18 -10 -22 -19
-7 -39 11 -30 26 10 16 33 13 40 -4z"/>
<path d="M1279 650 c-38 -7 -82 -34 -114 -71 -11 -12 5 -4 35 19 60 44 105 52
148 26 12 -8 22 -11 22 -6 0 19 -56 38 -91 32z"/>
<path d="M1934 637 c21 -16 35 -74 36 -150 0 -43 3 -57 13 -54 6 2 11 13 9 25
-5 34 33 96 72 117 22 12 31 22 24 26 -15 9 -36 -2 -71 -37 l-27 -27 0 28 c0
26 -44 85 -64 85 -6 0 -2 -6 8 -13z"/>
<path d="M1755 558 c-22 -45 -45 -83 -52 -85 -7 -3 -17 13 -23 37 -16 61 -31
90 -47 90 -17 0 -17 -3 6 -42 10 -18 22 -47 26 -65 9 -45 30 -60 54 -39 31 28
102 186 84 186 -4 0 -26 -37 -48 -82z"/>
<path d="M726 597 c-30 -39 -45 -129 -26 -152 19 -22 63 -18 88 8 28 30 16 44
-14 16 -31 -29 -58 -22 -62 19 -2 22 1 32 11 32 8 0 26 9 41 21 39 31 33 89
-9 89 -2 0 -15 -15 -29 -33z m48 -12 c-6 -14 -35 -35 -49 -35 -3 0 2 11 11 25
18 27 47 35 38 10z"/>
<path d="M1852 595 c-28 -30 -32 -42 -32 -88 0 -29 5 -58 12 -65 18 -18 63
-14 81 6 28 31 19 44 -13 20 -22 -16 -35 -20 -46 -13 -9 6 -15 13 -15 18 1 4
1 15 1 25 0 11 14 25 35 35 38 18 55 58 35 82 -18 21 -23 19 -58 -20z m48 -3
c0 -14 -39 -46 -47 -39 -3 4 2 16 12 27 19 21 35 26 35 12z"/>
<path d="M868 603 c-26 -30 -38 -60 -38 -93 0 -64 29 -84 85 -58 28 12 64 68
45 68 -6 0 -13 -6 -16 -14 -7 -18 -71 -49 -84 -41 -14 9 -12 50 4 90 17 39 31
45 39 15 3 -11 10 -20 17 -20 18 0 7 41 -16 56 -18 12 -23 12 -36 -3z"/>
<path d="M1264 602 c-19 -12 -47 -117 -40 -147 6 -24 10 -27 39 -21 44 8 87
57 87 99 0 53 -50 93 -86 69z m56 -31 c18 -35 11 -68 -21 -95 -17 -14 -37 -26
-45 -26 -28 0 -10 82 26 123 20 21 27 21 40 -2z"/>
<path d="M1389 606 c-8 -9 6 -166 16 -169 5 -1 11 11 12 26 3 40 33 88 73 114
30 21 31 23 10 23 -13 0 -37 -15 -56 -36 l-34 -35 0 40 c0 36 -8 50 -21 37z"/>
<path d="M1528 553 c-2 -75 1 -96 12 -107 11 -11 80 31 80 50 0 20 -10 18 -37
-8 -31 -29 -45 -14 -33 37 14 59 12 85 -5 85 -11 0 -15 -14 -17 -57z"/>
<path d="M2499 493 c-31 -37 -118 -54 -173 -34 -18 8 -28 6 -37 -5 -18 -22 -5
-27 81 -31 88 -4 133 11 179 61 l24 26 -30 0 c-17 0 -37 -7 -44 -17z"/>
</g>
</svg>
