<?xml version="1.0" standalone="no"?>
<!DOCTYPE svg PUBLIC "-//W3C//DTD SVG 20010904//EN"
 "http://www.w3.org/TR/2001/REC-SVG-20010904/DTD/svg10.dtd">
<svg version="1.0" xmlns="http://www.w3.org/2000/svg"
 width="325.000000pt" height="225.000000pt" viewBox="0 0 300.000000 225.000000"
 preserveAspectRatio="xMidYMid meet">
<metadata>
Created by potrace 1.10, written by Peter Selinger 2001-2011
</metadata>
<g transform="translate(0.000000,225.000000) scale(0.100000,-0.100000)"
fill="#000000" stroke="none">
<path d="M737 2243 c370 -2 976 -2 1345 0 370 1 68 2 -672 2 -740 0 -1042 -1
-673 -2z"/>
<path d="M2818 2243 c34 -2 90 -2 125 0 34 2 6 3 -63 3 -69 0 -97 -1 -62 -3z"/>
<path d="M1205 1643 c-98 -104 -248 -256 -334 -340 -86 -84 -159 -156 -163
-160 -4 -4 -34 -37 -67 -73 -33 -36 -61 -70 -61 -75 0 -6 27 -37 60 -69 33
-33 60 -63 60 -67 0 -5 35 -41 77 -81 43 -40 161 -157 263 -261 102 -103 191
-187 198 -187 6 0 12 -3 12 -8 0 -4 32 -41 70 -82 l70 -75 159 160 c87 88 190
191 229 228 40 38 72 71 72 73 0 2 -9 4 -21 4 -17 0 -139 -118 -377 -362 -24
-25 -72 -58 -72 -50 0 10 -642 657 -729 735 l-42 38 29 34 c17 18 55 59 86 89
31 31 56 61 56 66 0 6 4 10 9 10 17 0 181 167 181 184 0 15 3 16 15 6 10 -9
15 -9 15 -1 0 6 21 33 48 61 72 75 86 91 104 124 19 34 25 28 7 -6 -9 -16 -8
-19 3 -16 7 3 18 13 23 24 6 11 29 37 53 58 31 29 39 41 30 47 -10 6 -8 12 7
22 10 8 24 13 30 11 6 -3 22 13 35 35 33 53 48 58 81 24 15 -15 52 -48 83 -73
31 -25 56 -50 56 -56 0 -7 17 -26 38 -44 20 -17 52 -45 69 -61 18 -16 38 -29
45 -29 6 0 -63 74 -154 165 -92 91 -168 165 -170 165 -2 0 -85 -84 -183 -187z"/>
<path d="M1733 1453 c19 -20 30 -24 38 -16 8 8 2 15 -22 27 -45 22 -48 20 -16
-11z"/>
<path d="M1371 1275 c-9 -25 -20 -37 -39 -41 -87 -20 -117 -28 -209 -57 -57
-17 -103 -37 -103 -44 0 -17 40 -43 67 -43 12 0 70 16 129 35 58 20 109 34
111 31 3 -2 -2 -15 -11 -28 -35 -54 -156 -395 -156 -441 0 -3 6 -4 14 -1 8 3
19 26 26 52 7 26 52 117 101 202 48 85 93 174 100 196 10 35 18 45 53 60 72
31 111 43 241 79 33 9 64 20 70 26 12 12 17 13 -166 -17 -88 -14 -161 -24
-162 -22 -28 56 -49 60 -66 13z m39 -52 c0 -5 -12 -21 -25 -36 -18 -21 -29
-26 -41 -19 -13 7 -11 13 16 35 31 27 50 34 50 20z"/>
<path d="M1902 1292 c4 -21 35 -28 35 -8 0 8 -9 17 -19 19 -14 4 -18 1 -16
-11z"/>
<path d="M2120 940 c-34 -30 -34 -30 -9 -30 15 0 37 12 54 30 25 26 26 30 9
30 -10 -1 -35 -14 -54 -30z"/>
<path d="M1964 889 c-8 -14 21 -43 35 -35 17 11 13 24 -8 36 -14 7 -22 7 -27
-1z"/>
<path d="M1350 810 c-36 -39 -38 -69 -7 -98 31 -29 59 -28 96 3 29 25 30 26
41 6 15 -29 55 -37 85 -17 15 10 26 12 30 5 10 -15 32 7 38 38 6 32 -9 77 -23
68 -5 -3 -10 -20 -10 -37 0 -36 -23 -57 -62 -58 -32 0 -42 13 -34 46 5 20 11
24 27 19 17 -6 20 -3 17 17 -7 50 -78 20 -78 -34 0 -10 -5 -18 -10 -18 -6 0
-24 -10 -40 -21 -29 -22 -60 -20 -60 3 0 8 13 19 30 25 34 13 48 38 33 62 -17
27 -42 24 -73 -9z m50 -3 c0 -17 -38 -53 -46 -44 -8 8 23 57 36 57 6 0 10 -6
10 -13z"/>
<path d="M1893 828 c-6 -7 -13 -22 -17 -33 -8 -19 -8 -19 -17 3 -5 13 -13 20
-19 17 -7 -4 -6 -14 2 -28 6 -12 14 -38 18 -57 3 -20 12 -36 20 -38 12 -2 15
6 12 37 -5 47 12 81 40 81 17 0 18 2 8 15 -15 18 -34 19 -47 3z"/>
<path d="M2110 805 c0 -39 -15 -75 -30 -75 -6 0 -10 8 -10 19 0 28 -21 81 -32
81 -11 0 -3 -70 14 -112 16 -44 46 -36 69 17 22 49 22 96 2 103 -9 2 -13 -8
-13 -33z"/>
<path d="M2185 815 c-17 -16 -25 -35 -25 -58 0 -69 69 -90 122 -37 41 41 28
50 -22 15 -40 -28 -70 -28 -70 0 0 8 8 15 18 15 30 0 55 35 48 65 -8 33 -39
33 -71 0z m49 -4 c7 -10 -42 -57 -50 -48 -8 8 23 57 36 57 5 0 11 -4 14 -9z"/>
<path d="M2356 825 c-9 -9 -16 -24 -16 -33 0 -13 -5 -11 -20 8 -24 30 -27 9
-5 -34 8 -15 15 -39 15 -52 0 -15 6 -24 15 -24 12 0 14 8 9 40 -7 43 13 80 43
80 19 0 11 24 -9 28 -9 2 -23 -4 -32 -13z"/>
<path d="M1968 823 c-2 -4 -3 -37 -3 -73 0 -58 2 -65 20 -65 13 0 18 5 15 15
-2 8 -5 36 -5 62 0 43 -17 82 -27 61z"/>
<path d="M1649 804 c-10 -13 -10 -17 1 -24 8 -5 14 -27 14 -51 1 -35 5 -44 20
-47 14 -3 17 0 12 13 -3 9 -6 38 -6 65 0 52 -18 71 -41 44z"/>
<path d="M1743 803 c-26 -17 -32 -70 -11 -91 35 -35 99 8 82 55 -14 40 -44 55
-71 36z m51 -56 c-6 -17 -41 -33 -51 -24 -10 10 8 46 25 50 23 5 34 -6 26 -26z"/>
</g>
</svg>
